# xmcd
#
# Track frame offsets:
#	183
#	13000
#	24940
#	41805
#	59375
#	79213
#	98173
#	120383
#	137250
#	156653
#	170780
#	189310
#	207843
#	225030
#
# Disc length: 3230 seconds
#
# Revision: 0
# Processed by: cddbd v1.5.2PL0 Copyright (c) Steve Scherf et al.
# Submitted via: dBpowerAMP V4.0
#
DISCID=ac0c9c0e
DTITLE=Various Artist - 50 Cuntry Winners
DYEAR=1900
DGENRE=Country
TTITLE0=Country Roads Earl Morning Rain  Gentle on my mind Hello mary lou
TTITLE1=Oh Lonesome me The sea of Heartbreak Lonesome Number one Blue Blue day
TTITLE2=Four Walls He''ll Have to go You're Free To Go 
TTITLE3=Sweet Dreams Send Me The Pillow That You Dream on Satin Sheets
TTITLE4=Wild Side Of Life That Song Is Just For You Blackboard Of My Heart Married By The Bible
TTITLE5=Cryin Time Together Again I Can't Stop Loin You Take These Chains From My Heart
TTITLE6=Dear God Where Could i go But To The Lord House Of Gold You'll Never Walk Alone
TTITLE7=Blanket On The Ground Old Flames Blowing In The Wind Sing Me
TTITLE8=Tiny Bubbles Perly Shells Stand Beside Me
TTITLE9=Gypsy Woman You're My Best Friend Till The Rivers Run Dry
TTITLE10=Please Help Me I'm Falling Fraulein I Fall To Pieces It Keeps Right On Hurtin
TTITLE11=Eighteen Yellow Roses A Room Full Of Roses Ramblin Rose Red Roses For A Blue Lady 
TTITLE12=Irene Lucille Amanda
TTITLE13=Sydney Devine - Love Sick Blues Singing The Blues Knee Deep in The Blues Long Gone Lonesome Blues
EXTD=
EXTT0=
EXTT1=
EXTT2=
EXTT3=
EXTT4=
EXTT5=
EXTT6=
EXTT7=
EXTT8=
EXTT9=
EXTT10=
EXTT11=
EXTT12=
EXTT13=
PLAYORDER=
